<mxfile host="app.diagrams.net" modified="2024-04-19T03:17:05.629Z" agent="Mozilla/5.0 (Macintosh; Intel Mac OS X 10_15_7) AppleWebKit/537.36 (KHTML, like Gecko) Chrome/123.0.0.0 Safari/537.36" etag="tPv1V0OKoD3pOAbciYxn" version="24.2.5" type="github">
  <diagram name="第 1 页" id="UTlk613vQd4wa3ygeiDk">
    <mxGraphModel dx="1306" dy="801" grid="1" gridSize="10" guides="1" tooltips="1" connect="1" arrows="1" fold="1" page="1" pageScale="1" pageWidth="827" pageHeight="1169" math="0" shadow="0">
      <root>
        <mxCell id="0" />
        <mxCell id="1" parent="0" />
        <mxCell id="gnQYB68P_p1rYdE8LluR-4" value="" style="edgeStyle=orthogonalEdgeStyle;rounded=0;orthogonalLoop=1;jettySize=auto;html=1;" edge="1" parent="1" source="gnQYB68P_p1rYdE8LluR-1" target="gnQYB68P_p1rYdE8LluR-3">
          <mxGeometry relative="1" as="geometry" />
        </mxCell>
        <mxCell id="gnQYB68P_p1rYdE8LluR-1" value="物业" style="shape=umlActor;verticalLabelPosition=bottom;verticalAlign=top;html=1;outlineConnect=0;" vertex="1" parent="1">
          <mxGeometry x="70" y="360" width="30" height="60" as="geometry" />
        </mxCell>
        <mxCell id="gnQYB68P_p1rYdE8LluR-5" style="edgeStyle=orthogonalEdgeStyle;rounded=0;orthogonalLoop=1;jettySize=auto;html=1;exitX=1;exitY=0.5;exitDx=0;exitDy=0;" edge="1" parent="1" source="gnQYB68P_p1rYdE8LluR-3" target="gnQYB68P_p1rYdE8LluR-7">
          <mxGeometry relative="1" as="geometry">
            <mxPoint x="370" y="390" as="targetPoint" />
          </mxGeometry>
        </mxCell>
        <mxCell id="gnQYB68P_p1rYdE8LluR-3" value="小慧管家登录" style="whiteSpace=wrap;html=1;verticalAlign=middle;align=center;" vertex="1" parent="1">
          <mxGeometry x="170" y="360" width="120" height="60" as="geometry" />
        </mxCell>
        <mxCell id="gnQYB68P_p1rYdE8LluR-10" value="" style="edgeStyle=orthogonalEdgeStyle;rounded=0;orthogonalLoop=1;jettySize=auto;html=1;" edge="1" parent="1" source="gnQYB68P_p1rYdE8LluR-7" target="gnQYB68P_p1rYdE8LluR-9">
          <mxGeometry relative="1" as="geometry" />
        </mxCell>
        <mxCell id="gnQYB68P_p1rYdE8LluR-11" value="是" style="edgeLabel;html=1;align=center;verticalAlign=middle;resizable=0;points=[];" vertex="1" connectable="0" parent="gnQYB68P_p1rYdE8LluR-10">
          <mxGeometry x="-0.1429" y="2" relative="1" as="geometry">
            <mxPoint as="offset" />
          </mxGeometry>
        </mxCell>
        <mxCell id="gnQYB68P_p1rYdE8LluR-18" value="" style="edgeStyle=orthogonalEdgeStyle;rounded=0;orthogonalLoop=1;jettySize=auto;html=1;" edge="1" parent="1" source="gnQYB68P_p1rYdE8LluR-7" target="gnQYB68P_p1rYdE8LluR-17">
          <mxGeometry relative="1" as="geometry" />
        </mxCell>
        <mxCell id="gnQYB68P_p1rYdE8LluR-19" value="否" style="edgeLabel;html=1;align=center;verticalAlign=middle;resizable=0;points=[];" vertex="1" connectable="0" parent="gnQYB68P_p1rYdE8LluR-18">
          <mxGeometry x="-0.1571" y="1" relative="1" as="geometry">
            <mxPoint as="offset" />
          </mxGeometry>
        </mxCell>
        <mxCell id="gnQYB68P_p1rYdE8LluR-7" value="根据用户id查询是否存在NID" style="rhombus;whiteSpace=wrap;html=1;" vertex="1" parent="1">
          <mxGeometry x="370" y="335" width="110" height="110" as="geometry" />
        </mxCell>
        <mxCell id="gnQYB68P_p1rYdE8LluR-21" value="" style="edgeStyle=orthogonalEdgeStyle;rounded=0;orthogonalLoop=1;jettySize=auto;html=1;" edge="1" parent="1" source="gnQYB68P_p1rYdE8LluR-9" target="gnQYB68P_p1rYdE8LluR-20">
          <mxGeometry relative="1" as="geometry" />
        </mxCell>
        <mxCell id="gnQYB68P_p1rYdE8LluR-22" value="有" style="edgeLabel;html=1;align=center;verticalAlign=middle;resizable=0;points=[];" vertex="1" connectable="0" parent="gnQYB68P_p1rYdE8LluR-21">
          <mxGeometry x="-0.1714" y="-3" relative="1" as="geometry">
            <mxPoint as="offset" />
          </mxGeometry>
        </mxCell>
        <mxCell id="gnQYB68P_p1rYdE8LluR-24" style="edgeStyle=orthogonalEdgeStyle;rounded=0;orthogonalLoop=1;jettySize=auto;html=1;exitX=1;exitY=0.5;exitDx=0;exitDy=0;entryX=0.5;entryY=1;entryDx=0;entryDy=0;" edge="1" parent="1" source="gnQYB68P_p1rYdE8LluR-9" target="gnQYB68P_p1rYdE8LluR-17">
          <mxGeometry relative="1" as="geometry" />
        </mxCell>
        <mxCell id="gnQYB68P_p1rYdE8LluR-9" value="根据当前CID查询&lt;br&gt;是否有NID" style="whiteSpace=wrap;html=1;" vertex="1" parent="1">
          <mxGeometry x="365" y="550" width="120" height="60" as="geometry" />
        </mxCell>
        <mxCell id="gnQYB68P_p1rYdE8LluR-16" value="" style="edgeStyle=orthogonalEdgeStyle;rounded=0;orthogonalLoop=1;jettySize=auto;html=1;" edge="1" parent="1" source="gnQYB68P_p1rYdE8LluR-14" target="gnQYB68P_p1rYdE8LluR-15">
          <mxGeometry relative="1" as="geometry" />
        </mxCell>
        <mxCell id="gnQYB68P_p1rYdE8LluR-14" value="小区配置坐席池" style="rounded=1;whiteSpace=wrap;html=1;" vertex="1" parent="1">
          <mxGeometry x="365" y="30" width="120" height="60" as="geometry" />
        </mxCell>
        <mxCell id="gnQYB68P_p1rYdE8LluR-15" value="小区配置坐席池" style="rounded=1;whiteSpace=wrap;html=1;" vertex="1" parent="1">
          <mxGeometry x="365" y="170" width="120" height="60" as="geometry" />
        </mxCell>
        <mxCell id="gnQYB68P_p1rYdE8LluR-17" value="首页" style="whiteSpace=wrap;html=1;" vertex="1" parent="1">
          <mxGeometry x="610" y="360" width="120" height="60" as="geometry" />
        </mxCell>
        <mxCell id="gnQYB68P_p1rYdE8LluR-23" style="edgeStyle=orthogonalEdgeStyle;rounded=0;orthogonalLoop=1;jettySize=auto;html=1;exitX=1;exitY=0.5;exitDx=0;exitDy=0;entryX=0.5;entryY=1;entryDx=0;entryDy=0;" edge="1" parent="1" source="gnQYB68P_p1rYdE8LluR-20" target="gnQYB68P_p1rYdE8LluR-17">
          <mxGeometry relative="1" as="geometry" />
        </mxCell>
        <mxCell id="gnQYB68P_p1rYdE8LluR-25" value="否" style="edgeLabel;html=1;align=center;verticalAlign=middle;resizable=0;points=[];" vertex="1" connectable="0" parent="gnQYB68P_p1rYdE8LluR-23">
          <mxGeometry x="0.565" y="-2" relative="1" as="geometry">
            <mxPoint as="offset" />
          </mxGeometry>
        </mxCell>
        <mxCell id="gnQYB68P_p1rYdE8LluR-27" value="" style="edgeStyle=orthogonalEdgeStyle;rounded=0;orthogonalLoop=1;jettySize=auto;html=1;" edge="1" parent="1" source="gnQYB68P_p1rYdE8LluR-20" target="gnQYB68P_p1rYdE8LluR-26">
          <mxGeometry relative="1" as="geometry" />
        </mxCell>
        <mxCell id="gnQYB68P_p1rYdE8LluR-28" value="点击小泡泡" style="edgeLabel;html=1;align=center;verticalAlign=middle;resizable=0;points=[];" vertex="1" connectable="0" parent="gnQYB68P_p1rYdE8LluR-27">
          <mxGeometry x="-0.2222" y="-2" relative="1" as="geometry">
            <mxPoint as="offset" />
          </mxGeometry>
        </mxCell>
        <mxCell id="gnQYB68P_p1rYdE8LluR-20" value="展示小泡泡按钮" style="rhombus;whiteSpace=wrap;html=1;" vertex="1" parent="1">
          <mxGeometry x="385" y="690" width="80" height="80" as="geometry" />
        </mxCell>
        <mxCell id="gnQYB68P_p1rYdE8LluR-34" style="edgeStyle=orthogonalEdgeStyle;rounded=0;orthogonalLoop=1;jettySize=auto;html=1;exitX=0.5;exitY=1;exitDx=0;exitDy=0;" edge="1" parent="1" source="gnQYB68P_p1rYdE8LluR-26" target="gnQYB68P_p1rYdE8LluR-33">
          <mxGeometry relative="1" as="geometry" />
        </mxCell>
        <mxCell id="gnQYB68P_p1rYdE8LluR-35" value="接入当前会话" style="edgeLabel;html=1;align=center;verticalAlign=middle;resizable=0;points=[];" vertex="1" connectable="0" parent="gnQYB68P_p1rYdE8LluR-34">
          <mxGeometry x="0.1024" y="-1" relative="1" as="geometry">
            <mxPoint as="offset" />
          </mxGeometry>
        </mxCell>
        <mxCell id="gnQYB68P_p1rYdE8LluR-26" value="查询云端历史会话" style="whiteSpace=wrap;html=1;" vertex="1" parent="1">
          <mxGeometry x="365" y="860" width="120" height="60" as="geometry" />
        </mxCell>
        <mxCell id="gnQYB68P_p1rYdE8LluR-32" style="edgeStyle=orthogonalEdgeStyle;rounded=0;orthogonalLoop=1;jettySize=auto;html=1;exitX=0.5;exitY=0.5;exitDx=0;exitDy=0;exitPerimeter=0;" edge="1" parent="1" source="gnQYB68P_p1rYdE8LluR-30">
          <mxGeometry relative="1" as="geometry">
            <mxPoint x="190" y="980" as="targetPoint" />
          </mxGeometry>
        </mxCell>
        <mxCell id="gnQYB68P_p1rYdE8LluR-30" value="业主" style="shape=umlActor;verticalLabelPosition=bottom;verticalAlign=top;html=1;outlineConnect=0;" vertex="1" parent="1">
          <mxGeometry x="50" y="1050" width="30" height="60" as="geometry" />
        </mxCell>
        <mxCell id="gnQYB68P_p1rYdE8LluR-33" value="发起会话" style="rounded=1;whiteSpace=wrap;html=1;" vertex="1" parent="1">
          <mxGeometry x="130" y="920" width="120" height="60" as="geometry" />
        </mxCell>
        <mxCell id="gnQYB68P_p1rYdE8LluR-36" value="如果上拉则根据时间条件获取历史会话记录" style="text;html=1;align=center;verticalAlign=middle;resizable=0;points=[];autosize=1;strokeColor=none;fillColor=none;" vertex="1" parent="1">
          <mxGeometry x="55" y="878" width="250" height="30" as="geometry" />
        </mxCell>
      </root>
    </mxGraphModel>
  </diagram>
</mxfile>
